<svg height="504pt" viewBox="0 0 504.20855 504" width="504pt" xmlns="http://www.w3.org/2000/svg"><path d="m75.746094 268.90625c-28.5-.050781-53.925782 17.894531-63.425782 44.765625-9.5 26.871094-1.003906 56.808594 21.191407 74.683594 22.199219 17.875 53.261719 19.789062 77.488281 4.777343-15.015625 24.222657-13.101562 55.285157 4.773438 77.484376 17.875 22.195312 47.8125 30.691406 74.683593 21.191406 26.871094-9.5 44.816407-34.925782 44.765625-63.425782v-125.902343c0-18.542969-15.03125-33.574219-33.574218-33.574219zm0 0" fill="#5ab862"/><path d="m494.160156 349.148438c-7.039062 36.179687-42.035156 59.832031-78.226562 52.878906-8.132813-1.496094-15.90625-4.511719-22.914063-8.894532 1.976563 3.140626 3.660157 6.453126 5.035157 9.902344 7.667968 18.546875 6.605468 39.554688-2.894532 57.230469-9.496094 17.679687-26.425781 30.160156-46.125 34.007813-8.507812 1.621093-17.246094 1.648437-25.765625.082031-31.632812-6.078125-54.488281-33.761719-54.472656-65.972657v-125.902343c0-18.542969 15.03125-33.574219 33.570313-33.574219h125.902343c20.109375-.007812 39.164063 8.996094 51.925781 24.539062 12.761719 15.539063 17.886719 35.980469 13.964844 55.703126zm0 0" fill="#66993e"/><path d="m75.746094 235.335938c-28.5.050781-53.925782-17.894532-63.425782-44.765626-9.5-26.871093-1.003906-56.808593 21.191407-74.683593 22.199219-17.875 53.261719-19.789063 77.488281-4.777344-15.015625-24.222656-13.101562-55.285156 4.773438-77.484375 17.875-22.195312 47.8125-30.691406 74.683593-21.191406 26.871094 9.5 44.816407 34.925781 44.765625 63.425781v125.902344c0 18.539062-15.03125 33.574219-33.574218 33.574219zm0 0" fill="#9aca5c"/><path d="m428.269531 235.335938h-125.902343c-18.539063 0-33.570313-15.035157-33.570313-33.574219v-125.902344c-.015625-32.210937 22.839844-59.894531 54.472656-65.972656 8.519531-1.566407 17.257813-1.539063 25.765625.082031 19.699219 3.847656 36.628906 16.328125 46.125 34.007812 9.5 17.675782 10.5625 38.683594 2.894532 57.230469-1.375 3.449219-3.058594 6.761719-5.035157 9.902344 7.007813-4.382813 14.78125-7.398437 22.914063-8.894531 25.066406-4.753906 50.660156 5.113281 66.054687 25.460937 15.394531 20.347657 17.925781 47.660157 6.535157 70.492188-11.394532 22.828125-34.738282 37.230469-60.253907 37.167969zm0 0" fill="#388c41"/><path d="m468.980469 349.148438c-5.09375 25.898437-24.90625 46.402343-50.613281 52.375-.839844.167968-1.679688.335937-2.433594.503906-5.890625 1.121094-11.902344 1.460937-17.878906 1.007812-10.726563-.808594-21.09375-4.207031-30.21875-9.902344 11.640624 18.695313 13.347656 41.917969 4.566406 62.117188-8.785156 20.195312-26.933594 34.785156-48.546875 39.023438-.167969 0-.417969.082031-.585938.082031-31.632812-6.078125-54.488281-33.761719-54.472656-65.972657v-125.902343c0-18.542969 15.03125-33.574219 33.570313-33.574219h100.722656c20.109375-.007812 39.164062 8.996094 51.925781 24.539062 12.761719 15.539063 17.882813 35.980469 13.964844 55.703126zm0 0" fill="#9aca5c"/><path d="m403.089844 235.335938h-100.722656c-18.539063 0-33.570313-15.035157-33.570313-33.574219v-125.902344c-.015625-32.210937 22.839844-59.894531 54.472656-65.972656.167969 0 .417969.082031.585938.082031 21.613281 4.238281 39.761719 18.828125 48.546875 39.023438 8.78125 20.199218 7.074218 43.421874-4.566406 62.117187 9.125-5.695313 19.492187-9.09375 30.21875-9.902344 5.976562-.453125 11.988281-.113281 17.878906 1.007813.753906.167968 1.59375.335937 2.433594.503906 33.230468 7.765625 55.363281 39.210938 51.457031 73.113281-3.902344 33.90625-32.605469 59.496094-66.734375 59.503907zm0 0" fill="#5ab862"/><path d="m58.613281 409.675781c12.03125 2.742188 24.550781 2.527344 36.480469-.632812-5.410156 20.179687-2.199219 41.699219 8.859375 59.421875 11.058594 17.726562 28.980469 30.066406 49.484375 34.074218 4.777344.914063 9.628906 1.375 14.492188 1.386719 20.0625.035157 39.3125-7.90625 53.507812-22.078125 14.199219-14.167968 22.175781-33.40625 22.175781-53.464844v-125.902343c-.027343-23.164063-18.800781-41.9375-41.964843-41.964844h-125.902344c-38.460938-.101563-70.859375 28.710937-75.246094 66.921875-4.390625 38.210938 20.632812 73.617188 58.113281 82.238281zm-28.125-111.089843c11.148438-13.5 27.75-21.304688 45.257813-21.285157h125.902344c13.90625 0 25.179687 11.273438 25.179687 25.179688v125.902343c.019531 17.507813-7.785156 34.109376-21.285156 45.257813-13.660157 11.246094-31.628907 15.796875-48.992188 12.40625-18.890625-3.746094-34.738281-16.523437-42.402343-34.1875-7.664063-17.667969-6.167969-37.96875 4-54.320313 2.046874-3.3125 1.546874-7.597656-1.207032-10.351562s-7.039062-3.25-10.347656-1.199219c-16.355469 10.164063-36.65625 11.65625-54.320312 3.996094-17.664063-7.664063-30.441407-23.507813-34.191407-42.394531-3.390625-17.367188 1.160157-35.34375 12.40625-49.003906zm0 0"/><path d="m42.171875 344.449219c4.636719 0 8.394531-3.757813 8.394531-8.394531 0-13.90625 11.273438-25.179688 25.179688-25.179688 4.636718 0 8.394531-3.757812 8.394531-8.394531 0-4.632813-3.757813-8.390625-8.394531-8.390625-23.179688 0-41.96875 18.789062-41.96875 41.964844 0 4.636718 3.757812 8.394531 8.394531 8.394531zm0 0"/><path d="m117.714844 310.875h83.933594c4.636718 0 8.394531-3.757812 8.394531-8.394531 0-4.632813-3.757813-8.390625-8.394531-8.390625h-83.933594c-4.636719 0-8.394532 3.757812-8.394532 8.390625 0 4.636719 3.757813 8.394531 8.394532 8.394531zm0 0"/><path d="m287.765625 486.566406c13.585937 11.25 30.679687 17.390625 48.320313 17.359375 4.863281-.003906 9.714843-.460937 14.496093-1.371093 20.503907-4 38.433594-16.332032 49.5-34.050782 11.070313-17.722656 14.285157-39.242187 8.882813-59.425781 11.933594 3.144531 24.445312 3.359375 36.480468.628906 37.5625-8.558593 62.667969-44.015625 58.261719-82.289062-4.40625-38.277344-36.910156-67.101563-75.4375-66.902344h-125.902343c-23.164063.027344-41.9375 18.800781-41.964844 41.964844v125.902343c-.027344 22.507813 10.007812 43.851563 27.363281 58.183594zm-10.578125-184.085937c0-13.90625 11.273438-25.179688 25.179688-25.179688h125.902343c17.507813-.019531 34.109375 7.785157 45.257813 21.285157 11.246094 13.660156 15.796875 31.636718 12.40625 49.003906-3.75 18.886718-16.527344 34.730468-34.191406 42.394531-17.664063 7.660156-37.964844 6.167969-54.316407-3.996094-3.3125-2.050781-7.597656-1.554687-10.351562 1.199219-2.753907 2.753906-3.253907 7.039062-1.207031 10.351562 10.167968 16.351563 11.664062 36.652344 4 54.320313-7.664063 17.664063-23.511719 30.441406-42.398438 34.1875-17.367188 3.390625-35.335938-1.160156-48.996094-12.40625-13.496094-11.148437-21.304687-27.75-21.285156-45.257813zm0 0"/><path d="m302.367188 352.84375c4.636718 0 8.394531-3.757812 8.394531-8.394531v-33.574219h33.574219c4.636718 0 8.394531-3.757812 8.394531-8.394531 0-4.632813-3.757813-8.390625-8.394531-8.390625h-33.574219c-9.269531 0-16.785157 7.515625-16.785157 16.785156v33.574219c0 4.636719 3.757813 8.394531 8.390626 8.394531zm0 0"/><path d="m75.746094 243.726562h125.902344c23.164062-.027343 41.9375-18.800781 41.964843-41.964843v-125.902344c.109375-38.464844-28.703125-70.867187-66.914062-75.257813-38.214844-4.390624-73.625 20.632813-82.246094 58.117188-2.738281 12.03125-2.519531 24.550781.640625 36.476562-11.929688-3.152343-24.445312-3.367187-36.480469-.628906-37.480469 8.621094-62.503906 44.027344-58.113281 82.238282 4.386719 38.210937 36.785156 67.023437 75.246094 66.921874zm-57.664063-87.074218c4.46875-22.609375 21.78125-40.5 44.234375-45.699219 4.445313-1.007813 8.988282-1.515625 13.546875-1.519531 10.867188.019531 21.511719 3.082031 30.730469 8.835937 3.308594 2.050781 7.59375 1.554688 10.347656-1.199219 2.753906-2.75 3.253906-7.035156 1.207032-10.347656-10.175782-16.355468-11.675782-36.660156-4.011719-54.332031 7.667969-17.671875 23.519531-30.453125 42.414062-34.195313 17.363281-3.386718 35.332031 1.164063 48.992188 12.40625 13.5 11.148438 21.304687 27.75 21.285156 45.257813v125.902344c0 13.90625-11.273437 25.179687-25.179687 25.179687h-125.902344c-17.507813.019532-34.109375-7.785156-45.257813-21.285156-11.246093-13.660156-15.796875-31.636719-12.40625-49.003906zm0 0"/><path d="m41.273438 169.570312c.515624.101563 1.039062.152344 1.5625.152344 4.035156-.003906 7.496093-2.875 8.242187-6.839844 1.695313-8.011718 7.191406-14.695312 14.730469-17.894531 7.539062-3.203125 16.164062-2.523437 23.105468 1.820313 3.933594 2.34375 9.023438 1.101562 11.433594-2.789063 2.410156-3.894531 1.257813-9-2.59375-11.480469-11.648437-7.234374-26.101562-8.308593-38.691406-2.875-12.589844 5.4375-21.71875 16.691407-24.445312 30.128907-.84375 4.535156 2.128906 8.902343 6.65625 9.777343zm0 0"/><path d="m133.558594 76.101562c.605468.140626 1.226562.210938 1.847656.210938 3.925781-.003906 7.324219-2.726562 8.183594-6.554688 2.332031-9.339843 9.769531-16.539062 19.179687-18.566406 1.75-.335937 3.523438-.503906 5.304688-.511718 4.636719 0 8.394531-3.757813 8.394531-8.394532 0-4.636718-3.757812-8.394531-8.394531-8.394531-2.816407.019531-5.628907.300781-8.394531.839844-15.972657 3.296875-28.609376 15.519531-32.441407 31.375-.996093 4.503906 1.828125 8.964843 6.320313 9.996093zm0 0"/><path d="m302.367188 243.726562h125.902343c38.460938.101563 70.859375-28.710937 75.25-66.921874 4.386719-38.210938-20.632812-73.617188-58.117187-82.238282-12.015625-2.734375-24.515625-2.527344-36.4375.597656 8.460937-31.753906-4.59375-65.335937-32.28125-83.039062-27.6875-17.699219-63.648438-15.457031-88.917969 5.550781-17.355469 14.332031-27.390625 35.675781-27.363281 58.183594v125.902344c.027344 23.164062 18.800781 41.9375 41.964844 41.964843zm-25.179688-167.867187c-.011719-15.613281 6.195312-30.589844 17.25-41.617187 11.058594-11.027344 26.050781-17.191407 41.664062-17.136719 3.8125 0 7.617188.359375 11.367188 1.066406 18.886719 3.742187 34.734375 16.523437 42.398438 34.1875 7.664062 17.664063 6.167968 37.96875-4 54.320313-2.046876 3.3125-1.546876 7.597656 1.207031 10.351562 2.753906 2.75 7.039062 3.246094 10.351562 1.199219 16.355469-10.167969 36.660157-11.65625 54.324219-3.988281 17.664062 7.667968 30.441406 23.519531 34.183594 42.410156 3.390625 17.367187-1.160156 35.34375-12.40625 49.003906-11.148438 13.5-27.75 21.304688-45.257813 21.285156h-125.902343c-13.90625 0-25.179688-11.273437-25.179688-25.179687zm0 0"/><path d="m302.367188 143.007812c4.636718 0 8.394531-3.757812 8.394531-8.394531v-25.179687c0-4.636719-3.757813-8.394532-8.394531-8.394532-4.632813 0-8.390626 3.757813-8.390626 8.394532v25.179687c0 4.636719 3.757813 8.394531 8.390626 8.394531zm0 0"/><path d="m302.367188 84.253906c4.636718 0 8.394531-3.757812 8.394531-8.394531 0-13.90625 11.273437-25.179687 25.179687-25.179687 4.636719 0 8.394532-3.757813 8.394532-8.394532 0-4.636718-3.757813-8.394531-8.394532-8.394531-23.164062.027344-41.9375 18.800781-41.964844 41.96875 0 4.636719 3.757813 8.394531 8.390626 8.394531zm0 0"/></svg>